<svg width="32" height="32" viewBox="0 0 32 32" fill="none" xmlns="http://www.w3.org/2000/svg">
<path d="M12.4006 5.0368C12.8114 4.97998 13.4374 4.99755 13.8527 5.03192C16.9261 5.28645 19.2806 7.41429 20.1018 10.3434L18.9992 9.37859C18.7551 11.4974 18.2877 13.8741 18.0002 16.027C16.0399 17.8148 12.8187 17.2798 12.2033 14.5427C11.9002 13.1938 12.4799 12.0441 12.9328 10.8112C13.2403 9.97124 13.5385 9.12782 13.8264 8.28094C13.9324 7.96923 14.3349 7.02196 14.1535 6.77899L14.0598 6.77996C13.9412 6.85646 13.8924 6.93751 13.8498 7.07977C13.2881 8.95733 12.4683 10.7875 11.9074 12.6579C11.3405 14.5484 12.3926 16.8214 14.3801 17.2917C15.6944 17.6027 16.7593 17.3027 17.8742 16.5973C17.7916 17.5318 17.786 17.9866 17.9914 18.8971C18.4495 20.3083 18.8929 20.924 20.1105 21.7702C18.2605 23.2183 16.3943 24.6473 14.5139 26.0554C12.4602 26.079 10.4064 26.082 8.35273 26.0651C8.65505 23.6715 11.375 21.1575 10.9787 18.7263C10.7214 17.1485 9.70694 16.1215 8.17792 15.7507C7.60237 15.6111 7.01321 15.5839 6.44843 15.4216C5.76647 15.2297 5.12615 14.9115 4.56171 14.4831C3.17214 13.456 2.26101 11.9065 2.0373 10.1921C1.69141 7.63802 3.8226 8.39398 5.47285 8.28289C6.54798 8.20714 7.56208 7.75423 8.33613 7.00359C8.70514 6.64956 8.97619 6.31483 9.41035 6.02996C10.3414 5.41927 11.3159 5.1675 12.4006 5.0368ZM9.58613 8.61883C9.04732 8.69376 8.66743 9.18604 8.73163 9.72625C8.79604 10.2663 9.28022 10.6557 9.82148 10.6022C10.1813 10.5667 10.4941 10.3389 10.6389 10.0075C10.7833 9.67629 10.738 9.29266 10.5197 9.00457C10.3014 8.71651 9.94415 8.56922 9.58613 8.61883Z" fill="#57C9D2"/>
<path d="M28.781 9.70459C28.8559 9.90272 29.2081 11.8833 29.2536 12.1958C29.4785 13.7354 29.9605 15.6289 30.0993 17.1333C30.1404 17.5548 30.1269 17.98 30.0583 18.3979C29.8527 19.6078 29.138 20.6312 28.1306 21.3188C25.2724 23.2694 20.8569 22.9027 18.8259 19.9448C17.7626 18.155 18.3591 16.1321 18.6696 14.2104L19.2907 10.1323C20.3882 11.0019 21.8798 12.4171 22.9772 13.3833C23.9605 13.2418 24.5954 13.2886 25.5642 13.3599C26.5861 12.2185 27.7281 10.765 28.781 9.70459ZM24.2673 19.3726C24.2412 19.4454 24.2319 19.441 24.1716 19.4956C24.3937 19.9213 24.8606 20.1596 25.3015 19.8647C25.3779 19.8136 25.5696 19.6493 25.3776 19.6011C25.3409 19.5918 25.218 19.7379 25.1804 19.7476C25.0455 19.8311 24.8991 19.8394 24.7458 19.8013C24.4936 19.736 24.3815 19.5913 24.2673 19.3726ZM24.5212 18.5767C23.7963 18.5177 23.1373 18.5396 24.0036 19.2563C23.9219 19.4715 23.8416 19.6593 23.6149 19.7583C23.4588 19.8265 23.3458 19.8122 23.1872 19.7534C23.0462 19.7013 22.9841 19.5391 22.8483 19.5376C22.7919 19.5371 22.7863 19.615 22.8083 19.6528C22.881 19.788 23.0636 19.8941 23.1989 19.9399C23.3613 19.9958 23.5389 19.9826 23.6911 19.9028C23.8728 19.808 24.0003 19.6713 24.1003 19.4956C24.1022 19.4975 24.1041 19.4995 24.1061 19.5015L24.1589 19.4976C24.2194 19.4424 24.2284 19.4462 24.2546 19.3726C24.3386 19.2523 25.0348 18.6186 24.5212 18.5767ZM26.1853 16.645C25.9561 16.7064 25.7767 16.8884 25.7175 17.1216C25.6578 17.3547 25.7274 17.6023 25.8981 17.769C26.069 17.9357 26.3159 17.9962 26.5427 17.9263C26.884 17.8207 27.0798 17.4561 26.9821 17.1069C26.8849 16.7578 26.5304 16.5526 26.1853 16.645ZM21.5642 16.6509C21.2158 16.7569 21.0205 17.1268 21.1296 17.4741C21.2389 17.8215 21.6103 18.0134 21.9567 17.9009C22.2988 17.7898 22.4872 17.4243 22.3796 17.0815C22.2718 16.7389 21.9081 16.5466 21.5642 16.6509Z" fill="#FBA84B"/>
<path d="M20.4572 22.0366C20.6126 22.0443 21.2757 22.3819 21.48 22.4571C23.3373 23.142 25.2798 23.0367 27.0741 22.3038C27.8878 23.4101 27.9836 24.7172 27.8229 26.0327C26.3679 26.0134 24.9124 26.0081 23.4573 26.0153L15.2554 26.0158C15.5432 25.7709 15.8355 25.5399 16.1366 25.3114C17.5776 24.2206 18.9959 23.1002 20.4572 22.0366Z" fill="#FBA84B"/>
</svg>
